<mxfile host="app.diagrams.net" agent="Mozilla/5.0 (X11; Linux x86_64; rv:132.0) Gecko/20100101 Firefox/132.0" version="24.8.4">
  <diagram name="Page-1" id="g-8VrxECPGMRBqIFdhwS">
    <mxGraphModel dx="1005" dy="539" grid="1" gridSize="10" guides="1" tooltips="1" connect="1" arrows="1" fold="1" page="1" pageScale="1" pageWidth="850" pageHeight="1100" math="0" shadow="0">
      <root>
        <mxCell id="0" />
        <mxCell id="1" parent="0" />
        <mxCell id="-DnWc0YM8DA9V4ft4U6J-36" style="edgeStyle=orthogonalEdgeStyle;rounded=0;orthogonalLoop=1;jettySize=auto;html=1;exitX=0.5;exitY=1;exitDx=0;exitDy=0;entryX=0.5;entryY=0;entryDx=0;entryDy=0;" edge="1" parent="1" source="-DnWc0YM8DA9V4ft4U6J-34" target="-DnWc0YM8DA9V4ft4U6J-35">
          <mxGeometry relative="1" as="geometry" />
        </mxCell>
        <mxCell id="-DnWc0YM8DA9V4ft4U6J-34" value="Start" style="ellipse;whiteSpace=wrap;html=1;" vertex="1" parent="1">
          <mxGeometry x="365" width="120" height="80" as="geometry" />
        </mxCell>
        <mxCell id="-DnWc0YM8DA9V4ft4U6J-45" style="edgeStyle=orthogonalEdgeStyle;rounded=0;orthogonalLoop=1;jettySize=auto;html=1;exitX=0.5;exitY=1;exitDx=0;exitDy=0;entryX=0.5;entryY=0;entryDx=0;entryDy=0;" edge="1" parent="1" source="-DnWc0YM8DA9V4ft4U6J-35" target="-DnWc0YM8DA9V4ft4U6J-38">
          <mxGeometry relative="1" as="geometry" />
        </mxCell>
        <mxCell id="-DnWc0YM8DA9V4ft4U6J-35" value="sum = 0" style="rounded=1;whiteSpace=wrap;html=1;" vertex="1" parent="1">
          <mxGeometry x="365" y="120" width="120" height="60" as="geometry" />
        </mxCell>
        <mxCell id="-DnWc0YM8DA9V4ft4U6J-46" style="edgeStyle=orthogonalEdgeStyle;rounded=0;orthogonalLoop=1;jettySize=auto;html=1;exitX=0.5;exitY=1;exitDx=0;exitDy=0;entryX=0.5;entryY=0;entryDx=0;entryDy=0;" edge="1" parent="1" source="-DnWc0YM8DA9V4ft4U6J-38" target="-DnWc0YM8DA9V4ft4U6J-39">
          <mxGeometry relative="1" as="geometry" />
        </mxCell>
        <mxCell id="-DnWc0YM8DA9V4ft4U6J-38" value="n = 0" style="rounded=1;whiteSpace=wrap;html=1;" vertex="1" parent="1">
          <mxGeometry x="365" y="220" width="120" height="60" as="geometry" />
        </mxCell>
        <mxCell id="-DnWc0YM8DA9V4ft4U6J-47" value="Yes" style="edgeStyle=orthogonalEdgeStyle;rounded=0;orthogonalLoop=1;jettySize=auto;html=1;exitX=0.5;exitY=1;exitDx=0;exitDy=0;entryX=0.5;entryY=0;entryDx=0;entryDy=0;" edge="1" parent="1" source="-DnWc0YM8DA9V4ft4U6J-39" target="-DnWc0YM8DA9V4ft4U6J-40">
          <mxGeometry relative="1" as="geometry" />
        </mxCell>
        <mxCell id="-DnWc0YM8DA9V4ft4U6J-50" value="No" style="edgeStyle=orthogonalEdgeStyle;rounded=0;orthogonalLoop=1;jettySize=auto;html=1;exitX=0;exitY=0.5;exitDx=0;exitDy=0;entryX=0.5;entryY=0;entryDx=0;entryDy=0;" edge="1" parent="1" source="-DnWc0YM8DA9V4ft4U6J-39" target="-DnWc0YM8DA9V4ft4U6J-43">
          <mxGeometry x="-0.9333" relative="1" as="geometry">
            <Array as="points">
              <mxPoint x="320" y="360" />
              <mxPoint x="320" y="620" />
              <mxPoint x="425" y="620" />
            </Array>
            <mxPoint as="offset" />
          </mxGeometry>
        </mxCell>
        <mxCell id="-DnWc0YM8DA9V4ft4U6J-39" value="n &amp;lt;= 9?" style="rhombus;whiteSpace=wrap;html=1;" vertex="1" parent="1">
          <mxGeometry x="385" y="320" width="80" height="80" as="geometry" />
        </mxCell>
        <mxCell id="-DnWc0YM8DA9V4ft4U6J-48" style="edgeStyle=orthogonalEdgeStyle;rounded=0;orthogonalLoop=1;jettySize=auto;html=1;exitX=0.5;exitY=1;exitDx=0;exitDy=0;entryX=0.5;entryY=0;entryDx=0;entryDy=0;" edge="1" parent="1" source="-DnWc0YM8DA9V4ft4U6J-40" target="-DnWc0YM8DA9V4ft4U6J-41">
          <mxGeometry relative="1" as="geometry" />
        </mxCell>
        <mxCell id="-DnWc0YM8DA9V4ft4U6J-40" value="sum += exp(-sqrt(n))" style="rounded=1;whiteSpace=wrap;html=1;" vertex="1" parent="1">
          <mxGeometry x="365" y="440" width="120" height="60" as="geometry" />
        </mxCell>
        <mxCell id="-DnWc0YM8DA9V4ft4U6J-49" style="edgeStyle=orthogonalEdgeStyle;rounded=0;orthogonalLoop=1;jettySize=auto;html=1;exitX=1;exitY=0.5;exitDx=0;exitDy=0;entryX=1;entryY=0.5;entryDx=0;entryDy=0;" edge="1" parent="1" source="-DnWc0YM8DA9V4ft4U6J-41" target="-DnWc0YM8DA9V4ft4U6J-39">
          <mxGeometry relative="1" as="geometry" />
        </mxCell>
        <mxCell id="-DnWc0YM8DA9V4ft4U6J-41" value="n++" style="rounded=1;whiteSpace=wrap;html=1;" vertex="1" parent="1">
          <mxGeometry x="365" y="540" width="120" height="60" as="geometry" />
        </mxCell>
        <mxCell id="-DnWc0YM8DA9V4ft4U6J-51" style="edgeStyle=orthogonalEdgeStyle;rounded=0;orthogonalLoop=1;jettySize=auto;html=1;exitX=0.5;exitY=1;exitDx=0;exitDy=0;entryX=0.5;entryY=0;entryDx=0;entryDy=0;" edge="1" parent="1" source="-DnWc0YM8DA9V4ft4U6J-43" target="-DnWc0YM8DA9V4ft4U6J-44">
          <mxGeometry relative="1" as="geometry" />
        </mxCell>
        <mxCell id="-DnWc0YM8DA9V4ft4U6J-43" value="print sum" style="shape=parallelogram;perimeter=parallelogramPerimeter;whiteSpace=wrap;html=1;fixedSize=1;" vertex="1" parent="1">
          <mxGeometry x="365" y="640" width="120" height="60" as="geometry" />
        </mxCell>
        <mxCell id="-DnWc0YM8DA9V4ft4U6J-44" value="End" style="ellipse;whiteSpace=wrap;html=1;" vertex="1" parent="1">
          <mxGeometry x="365" y="740" width="120" height="80" as="geometry" />
        </mxCell>
      </root>
    </mxGraphModel>
  </diagram>
</mxfile>
